<?xml version="1.0" encoding="UTF-8"?>
<svg width="20px" height="20px" viewBox="0 0 20 20" version="1.1" xmlns="http://www.w3.org/2000/svg" xmlns:xlink="http://www.w3.org/1999/xlink">
    <!-- Generator: Sketch 43.1 (39012) - http://www.bohemiancoding.com/sketch -->
    <title>bash-red</title>
    <desc>Created with Sketch.</desc>
    <defs></defs>
    <g id="Home" stroke="none" stroke-width="1" fill="none" fill-rule="evenodd">
        <g id="bash-red" fill="#ED1943">
            <path d="M14.818171,8.43590946 C14.7302989,8.02524897 14.5906649,7.63334615 14.4032939,7.268984 C13.6069444,5.72028486 11.9794096,4.65846854 10.0992815,4.65846854 C9.90082024,4.65846854 9.70519856,4.67040724 9.51302021,4.69340194 L9.51302021,6.46869368 C9.70425947,6.43237001 9.90162517,6.41310479 10.1035969,6.41310479 C11.818892,6.41310479 13.209418,7.78550393 13.209418,9.47828401 C13.209418,10.2699017 12.9029165,10.9890265 12.4036553,11.5329326 C12.3346544,11.6083384 12.2618972,11.6799485 12.1854954,11.7482485 L11.2037872,12.7173799 L10.355497,13.5545897 C10.216735,13.6915428 9.99188974,13.6915428 9.85310545,13.5545897 L9.00483762,12.7173799 L8.03363826,11.7589956 C7.94912004,11.6842518 7.86902896,11.6052048 7.79327559,11.5218104 C7.30038677,10.9791621 6.99790991,10.2645392 6.99790991,9.47828401 C6.99790991,9.41002817 7.00039179,9.34230197 7.00486366,9.27512745 L5.27720383,9.27512745 C5.27566104,9.32330155 5.27467723,9.37160806 5.27467723,9.42020145 C5.27467723,10.7184968 5.80173108,11.8947569 6.65527571,12.7536374 L6.72199592,12.8196864 L8.88282282,14.9521462 L9.82189184,15.8110266 C9.97556744,15.9626548 10.2246502,15.9626548 10.3782588,15.8110266 L11.3173278,14.9521462 L13.5037337,12.7942422 L13.5179319,12.7802512 C14.386815,11.9190978 14.9241095,10.7316713 14.9241095,9.42020145 C14.9241095,9.08245312 14.8862775,8.75373053 14.818171,8.43590946" id="pin"></path>
            <path d="M10.0202928,7.71322562 C11.0792302,7.71322562 11.9376044,8.46227441 11.9376044,9.38621085 C11.9376044,10.3101032 11.0792302,11.0591519 10.0202928,11.0591519 C9.22383155,11.0591519 8.54066494,10.6350963 8.2512012,10.0313642 L8.24650574,10.0325118 C8.19163597,9.90394451 8.08285789,9.57025666 7.89282604,8.70557237 C7.62192054,7.47111932 7.29147217,6.16342309 7.2229185,5.89432782 C7.21804417,5.87543774 7.19244275,5.87179655 7.18287296,5.88874465 C7.08093682,6.07034093 6.88524807,6.87047677 6.81727574,8.4977595 L6.6303742,8.4977595 C6.6303742,8.4977595 5.99912591,6.99787443 5.99912591,5.71718924 C5.99912591,4.43650406 6.62254843,4.0596515 6.98092359,3.79035762 C7.18991614,3.6336318 7.38989789,3.35857821 7.475467,3.23305632 C7.49165515,3.20917891 7.52897285,3.21650544 7.53503222,3.24486261 L8.73460966,8.27355022 L8.84298528,8.1107116 C8.8449529,8.09546273 8.85040858,8.08100829 8.85861445,8.06789999 C8.86720042,8.05401932 8.87891671,8.041882 8.89300308,8.03301073 C9.20938743,7.83197268 9.59902092,7.71322562 10.0202928,7.71322562" id="note"></path>
        </g>
    </g>
</svg>