<?xml version="1.0" encoding="UTF-8"?>
<svg width="113px" height="99px" viewBox="0 0 113 99" version="1.1" xmlns="http://www.w3.org/2000/svg" xmlns:xlink="http://www.w3.org/1999/xlink">
    <!-- Generator: Sketch 43.1 (39012) - http://www.bohemiancoding.com/sketch -->
    <title>bash-mobile-menu-tiny</title>
    <desc>Created with Sketch.</desc>
    <defs>
        <filter x="-1570.0%" y="-1030.8%" width="3240.0%" height="2515.4%" filterUnits="objectBoundingBox" id="filter-1">
            <feOffset dx="0" dy="23" in="SourceAlpha" result="shadowOffsetOuter1"></feOffset>
            <feGaussianBlur stdDeviation="48.5" in="shadowOffsetOuter1" result="shadowBlurOuter1"></feGaussianBlur>
            <feColorMatrix values="0 0 0 0 0   0 0 0 0 0   0 0 0 0 0  0 0 0 0.0986752717 0" type="matrix" in="shadowBlurOuter1" result="shadowMatrixOuter1"></feColorMatrix>
            <feMerge>
                <feMergeNode in="shadowMatrixOuter1"></feMergeNode>
                <feMergeNode in="SourceGraphic"></feMergeNode>
            </feMerge>
        </filter>
    </defs>
    <g id="Home" stroke="none" stroke-width="1" fill="none" fill-rule="evenodd">
        <g id="web-with-videos-future" transform="translate(-164.000000, 0.000000)" fill="#ED1943">
            <g id="Group-4" transform="translate(210.000000, 10.000000)">
                <g id="bash-mobile-menu-tiny">
                    <g id="bash-grey" filter="url(#filter-1)" transform="translate(5.000000, 3.000000)">
                        <path d="M9.81817101,5.43590946 C9.73029889,5.02524897 9.59066494,4.63334615 9.40329385,4.268984 C8.60694436,2.72028486 6.97940957,1.65846854 5.09928155,1.65846854 C4.90082024,1.65846854 4.70519856,1.67040724 4.51302021,1.69340194 L4.51302021,3.46869368 C4.70425947,3.43237001 4.90162517,3.41310479 5.1035969,3.41310479 C6.81889202,3.41310479 8.20941804,4.78550393 8.20941804,6.47828401 C8.20941804,7.26990167 7.9029165,7.98902646 7.40365528,8.53293258 C7.33465442,8.6083384 7.2618972,8.67994855 7.18549541,8.74824852 L6.20378717,9.71737991 L5.35549698,10.5545897 C5.21673505,10.6915428 4.99188974,10.6915428 4.85310545,10.5545897 L4.00483762,9.71737991 L3.03363826,8.75899556 C2.94912004,8.68425178 2.86902896,8.60520477 2.79327559,8.52181039 C2.30038677,7.97916213 1.99790991,7.26453918 1.99790991,6.47828401 C1.99790991,6.41002817 2.00039179,6.34230197 2.00486366,6.27512745 L0.27720383,6.27512745 C0.275661037,6.32330155 0.274677227,6.37160806 0.274677227,6.42020145 C0.274677227,7.71849678 0.801731084,8.89475693 1.65527571,9.75363737 L1.72199592,9.81968642 L3.88282282,11.9521462 L4.82189184,12.8110266 C4.97556744,12.9626548 5.22465025,12.9626548 5.37825876,12.8110266 L6.31732778,11.9521462 L8.50373375,9.7942422 L8.51793192,9.78025119 C9.38681504,8.91909776 9.92410946,7.73167128 9.92410946,6.42020145 C9.92410946,6.08245312 9.88627749,5.75373053 9.81817101,5.43590946" id="pin"></path>
                        <path d="M5.02029284,4.71322562 C6.07923017,4.71322562 6.93760441,5.46227441 6.93760441,6.38621085 C6.93760441,7.31010315 6.07923017,8.05915194 5.02029284,8.05915194 C4.22383155,8.05915194 3.54066494,7.63509627 3.2512012,7.03136423 L3.24650574,7.03251176 C3.19163597,6.90394451 3.08285789,6.57025666 2.89282604,5.70557237 C2.62192054,4.47111932 2.29147217,3.16342309 2.2229185,2.89432782 C2.21804417,2.87543774 2.19244275,2.87179655 2.18287296,2.88874465 C2.08093682,3.07034093 1.88524807,3.87047677 1.81727574,5.4977595 L1.6303742,5.4977595 C1.6303742,5.4977595 0.999125914,3.99787443 0.999125914,2.71718924 C0.999125914,1.43650406 1.62254843,1.0596515 1.98092359,0.790357619 C2.18991614,0.6336318 2.38989789,0.358578208 2.475467,0.233056318 C2.49165515,0.209178912 2.52897285,0.216505436 2.53503222,0.244862614 L3.73460966,5.27355022 L3.84298528,5.1107116 C3.8449529,5.09546273 3.85040858,5.08100829 3.85861445,5.06789999 C3.86720042,5.05401932 3.87891671,5.041882 3.89300308,5.03301073 C4.20938743,4.83197268 4.59902092,4.71322562 5.02029284,4.71322562" id="note"></path>
                    </g>
                </g>
            </g>
        </g>
    </g>
</svg>