<?xml version="1.0" encoding="UTF-8"?>
<svg width="192px" height="134px" viewBox="0 0 192 134" version="1.1" xmlns="http://www.w3.org/2000/svg" xmlns:xlink="http://www.w3.org/1999/xlink">
    <!-- Generator: Sketch 42 (36781) - http://www.bohemiancoding.com/sketch -->
    <title>bash-grey</title>
    <desc>Created with Sketch.</desc>
    <style>
      
    </style>
    <defs>
        <filter x="-50%" y="-50%" width="200%" height="200%" filterUnits="objectBoundingBox" id="filter-1">
            <feOffset dx="0" dy="23" in="SourceAlpha" result="shadowOffsetOuter1"></feOffset>
            <feGaussianBlur stdDeviation="48.5" in="shadowOffsetOuter1" result="shadowBlurOuter1"></feGaussianBlur>
            <feColorMatrix values="0 0 0 0 0   0 0 0 0 0   0 0 0 0 0  0 0 0 0.0986752717 0" type="matrix" in="shadowBlurOuter1" result="shadowMatrixOuter1"></feColorMatrix>
            <feMerge>
                <feMergeNode in="shadowMatrixOuter1"></feMergeNode>
                <feMergeNode in="SourceGraphic"></feMergeNode>
            </feMerge>
        </filter>
    </defs>
    <g id="Home" stroke="none" stroke-width="1" fill="none" fill-rule="evenodd">
        <g id="iPhone-SE" transform="translate(-64.000000, 0.000000)" fill="#808080">
            <g id="bash-grey" filter="url(#filter-1)" transform="translate(148.000000, 4.000000)">
                <path d="M23.0692689,12.5444064 C22.8628002,11.5967284 22.5347092,10.6923373 22.0944527,9.85150154 C20.2233098,6.27758046 16.3991721,3.8272351 11.9815287,3.8272351 C11.515214,3.8272351 11.0555714,3.85478595 10.6040195,3.90785062 L10.6040195,8.00467773 C11.0533649,7.92085388 11.5171053,7.87639566 11.9916682,7.87639566 C16.022012,7.87639566 19.289262,11.0434706 19.289262,14.9498862 C19.289262,16.7766962 18.5690905,18.4362149 17.3960012,19.6913829 C17.2338733,19.8653963 17.0629193,20.0306505 16.8834018,20.1882658 L14.5767307,22.4247229 L12.5835453,24.3567455 C12.2575033,24.672791 11.7291955,24.672791 11.4031009,24.3567455 L9.40996812,22.4247229 L7.1279892,20.2130667 C6.92940093,20.040581 6.7412149,19.8581648 6.56322096,19.6657163 C5.40510458,18.4134511 4.69438971,16.7643212 4.69438971,14.9498862 C4.69438971,14.7923727 4.70022127,14.6360815 4.71072859,14.4810634 L0.651332077,14.4810634 C0.647707053,14.5922344 0.645395443,14.7037109 0.645395443,14.8158495 C0.645395443,17.8119156 1.88378772,20.5263621 3.88931915,22.5083939 L4.04608831,22.6608148 L9.123276,27.5818759 L11.3297599,29.5639076 C11.6908438,29.9138188 12.2761013,29.9138188 12.6370276,29.5639076 L14.8435114,27.5818759 L19.980801,22.6020974 L20.0141617,22.5698104 C22.0557332,20.5825333 23.3181873,17.8423183 23.3181873,14.8158495 C23.3181873,14.0364303 23.2292954,13.2778397 23.0692689,12.5444064" id="pin"></path>
                <path d="M11.7959328,10.8766745 C14.2840653,10.8766745 16.3009446,12.6052486 16.3009446,14.7374097 C16.3009446,16.8694688 14.2840653,18.5980429 11.7959328,18.5980429 C9.92452729,18.5980429 8.3193246,17.6194529 7.63918603,16.2262251 L7.62815335,16.2288733 C7.49922858,15.9321796 7.24363812,15.1621307 6.79712972,13.1667055 C6.16059651,10.3179677 5.38415838,7.30020713 5.22308122,6.67921804 C5.21162825,6.63562556 5.15147386,6.6272228 5.12898821,6.66633381 C4.88947394,7.08540215 4.42967378,8.93186948 4.26996258,12.6871373 L3.8308093,12.6871373 C3.8308093,12.6871373 2.34759655,9.22586407 2.34759655,6.27043671 C2.34759655,3.31500936 3.8124215,2.44534963 4.65447781,1.8239022 C5.14553723,1.46222723 5.61542441,0.827488172 5.8164819,0.537822272 C5.85451839,0.482720567 5.94220194,0.499627929 5.95643935,0.565067571 L8.7750269,12.1697313 L9.02967171,11.7939499 C9.03429493,11.7587601 9.04711386,11.7254037 9.06639478,11.6951538 C9.08656883,11.6631215 9.114098,11.6351123 9.14719604,11.6146401 C9.89058866,11.1507062 10.8060911,10.8766745 11.7959328,10.8766745" id="note"></path>
            </g>
        </g>
    </g>
</svg>
